<svg xmlns="http://www.w3.org/2000/svg" viewBox="0 0 123.57 164.41"><defs><style>.cls-1{fill:#231f20;}.cls-1,.cls-2,.cls-3{fill-rule:evenodd;}.cls-2{fill:#f3c41d;}.cls-3{fill:#fff;}</style></defs><title>army-logo-color</title><g id="Layer_2" data-name="Layer 2"><g id="Layer_1-2" data-name="Layer 1"><path class="cls-1" d="M120.6,3a9.82,9.82,0,0,0-7.21-3H10.23A9.74,9.74,0,0,0,3,3a9.74,9.74,0,0,0-3,7.21v97a9.74,9.74,0,0,0,3,7.21,9.7,9.7,0,0,0,7.21,3H113.39a10.14,10.14,0,0,0,10.18-10.18v-97a9.7,9.7,0,0,0-3-7.21Z"/><path class="cls-2" d="M120.35,10.23a6.88,6.88,0,0,0-2.07-4.94,6.55,6.55,0,0,0-4.89-2H10.23a6.66,6.66,0,0,0-4.94,2,6.82,6.82,0,0,0-2,4.94v97a6.74,6.74,0,0,0,2,4.94,6.66,6.66,0,0,0,4.94,2H113.39a6.55,6.55,0,0,0,4.89-2,6.79,6.79,0,0,0,2.07-4.94v-97Z"/><path class="cls-1" d="M116,7.61a3.72,3.72,0,0,0-2.62-1.06H10.23A3.66,3.66,0,0,0,7.61,7.61,3.7,3.7,0,0,0,6.5,10.23v97a3.7,3.7,0,0,0,1.11,2.62,3.66,3.66,0,0,0,2.62,1.06H113.39a3.72,3.72,0,0,0,2.62-1.06,3.62,3.62,0,0,0,1.06-2.62v-97A3.62,3.62,0,0,0,116,7.61Z"/><polygon class="cls-2" points="109.5 47.24 74.16 47.24 63.17 13.87 51.98 47.24 16.34 47.24 45.48 67.76 34.59 101.19 63.02 80.82 91.96 101.69 81.27 67.41 109.5 47.24 109.5 47.24"/><polygon class="cls-1" points="97.81 50.57 71.34 50.57 63.12 25.56 54.75 50.57 28.03 50.57 49.81 65.94 41.7 90.95 63.02 75.73 84.65 91.36 76.68 65.69 97.81 50.57 97.81 50.57"/><polygon class="cls-3" points="73.25 64.94 89.24 53.54 69.27 53.54 63.07 34.69 56.77 53.54 36.6 53.54 53.04 65.14 46.94 83.99 62.97 72.5 79.31 84.3 73.25 64.94 73.25 64.94"/><path class="cls-1" d="M10.23,120.55a9.7,9.7,0,0,0-7.21,3,9.74,9.74,0,0,0-3,7.21v23.44a9.68,9.68,0,0,0,3,7.16,9.71,9.71,0,0,0,7.21,3H113.39a9.79,9.79,0,0,0,7.21-3,9.63,9.63,0,0,0,3-7.16V130.78a10.23,10.23,0,0,0-10.18-10.23Z"/><path class="cls-2" d="M5.29,125.84a6.74,6.74,0,0,0-2,4.94v23.44a6.65,6.65,0,0,0,2,4.9,6.66,6.66,0,0,0,4.94,2H113.39a6.55,6.55,0,0,0,4.89-2,6.7,6.7,0,0,0,2.07-4.9V130.78a6.79,6.79,0,0,0-2.07-4.94,6.56,6.56,0,0,0-4.89-2H10.23a6.67,6.67,0,0,0-4.94,2Z"/><path class="cls-1" d="M10.23,127.1a3.62,3.62,0,0,0-2.62,1.06,3.69,3.69,0,0,0-1.11,2.62v23.44a3.6,3.6,0,0,0,1.11,2.58,3.51,3.51,0,0,0,2.62,1.11H113.39A3.57,3.57,0,0,0,116,156.8a3.51,3.51,0,0,0,1.06-2.58V130.78a3.6,3.6,0,0,0-1.06-2.62,3.68,3.68,0,0,0-2.62-1.06Z"/><path class="cls-3" d="M78.75,140.92v-5.3l-3.12-2.92h-8V153h4.64v-8.11h2V153h4.54v-8.11l-2.37-2,2.37-2ZM14,132.7V150l3.12,3h5.25l3-3V132.7H20.72v16.43h-2V132.7Zm60.19,3.78v4.59h-2v-4.59Zm21.43-3.78H90.15l-1.52,9.78h-.4l-1.66-9.78H81.12V153h4.24V140.11h.2l2,12.85h1.72l2-12.85h.21V153h4.23V132.7Zm8.27,7.31h0l-1.66-7.31H97.56l4,11.74V153h4.69v-8.52l4-11.74h-4.64L103.91,140ZM31.66,153V149H27V153ZM46.48,149V153h4.64V149Zm-1.61-13.41-3.28-2.92H36.65l-3,2.92v6.1l3.22,2.93,3.33.25v4.23H38.27v-2.67H33.63V150l3,3H41.8l3.07-3v-6.15l-3.18-2.92-3.42-.31v-4.13h1.91v2.72h4.69v-3.58Zm17.85-2.92H56L53.14,153h4.54l.4-3.78h2.67l.41,3.78h4.53l-3-20.26Zm-4.34,12.7.71-8.42h.45l.86,8.42Z"/></g></g></svg>